HIERARCHY
ROOT Hips
{
  OFFSET 40.9192 92.6879 18.85
  CHANNELS 6 Xposition Yposition Zposition Zrotation Xrotation Yrotation
  JOINT LeftUpLeg
  {
    OFFSET 8.64259 1.95398 -2.38835
    CHANNELS 3 Zrotation Xrotation Yrotation
    JOINT LeftLeg
    {
      OFFSET 43.7702 0 0
      CHANNELS 3 Zrotation Xrotation Yrotation
      JOINT LeftFoot
      {
        OFFSET 40.6238 0 0
        CHANNELS 3 Zrotation Xrotation Yrotation
        JOINT LeftToeBase
        {
          OFFSET 12.7242 0 0
          CHANNELS 3 Zrotation Xrotation Yrotation
          End Site
          {
            OFFSET 0 0 0
          }
        }
      }
    }
  }
  JOINT RightUpLeg
  {
    OFFSET -8.2249 1.95398 -2.59336
    CHANNELS 3 Zrotation Xrotation Yrotation
    JOINT RightLeg
    {
      OFFSET 43.5653 0 0
      CHANNELS 3 Zrotation Xrotation Yrotation
      JOINT RightFoot
      {
        OFFSET 40.6238 0 0
        CHANNELS 3 Zrotation Xrotation Yrotation
        JOINT RightToeBase
        {
          OFFSET 12.7242 0 0
          CHANNELS 3 Zrotation Xrotation Yrotation
          End Site
          {
            OFFSET 0 0 0
          }
        }
      }
    }
  }
  JOINT Spine
  {
    OFFSET 0.165834 0.87714 6.61349
    CHANNELS 3 Zrotation Xrotation Yrotation
    JOINT Spine1
    {
      OFFSET 7.38963 1.71661e-005 0
      CHANNELS 3 Zrotation Xrotation Yrotation
      JOINT Spine2
      {
        OFFSET 11.9445 1.14441e-005 0
        CHANNELS 3 Zrotation Xrotation Yrotation
        JOINT Spine3
        {
          OFFSET 14.7254 4.19617e-005 0
          CHANNELS 3 Zrotation Xrotation Yrotation
          JOINT Spine4
          {
            OFFSET 10.9679 0 0
            CHANNELS 3 Zrotation Xrotation Yrotation
            JOINT RightShoulder
            {
              OFFSET 2.46616 -1.6653 3.69651
              CHANNELS 3 Zrotation Xrotation Yrotation
              JOINT RightArm
              {
                OFFSET 13.0012 0 0
                CHANNELS 3 Zrotation Xrotation Yrotation
                JOINT RightForeArm
                {
                  OFFSET 28.7848 1.52588e-005 0
                  CHANNELS 3 Zrotation Xrotation Yrotation
                  JOINT RightHand
                  {
                    OFFSET 26.5688 1.52588e-005 0
                    CHANNELS 3 Zrotation Xrotation Yrotation
                    End Site
                    {
                      OFFSET 0 0 0
                    }
                  }
                }
              }
            }
            JOINT LeftShoulder
            {
              OFFSET 2.38034 -1.29275 -3.7523
              CHANNELS 3 Zrotation Xrotation Yrotation
              JOINT LeftArm
              {
                OFFSET 16.3182 6.10351e-005 0
                CHANNELS 3 Zrotation Xrotation Yrotation
                JOINT LeftForeArm
                {
                  OFFSET 27.0901 0 0
                  CHANNELS 3 Zrotation Xrotation Yrotation
                  JOINT LeftHand
                  {
                    OFFSET 24.5451 1.52588e-005 0
                    CHANNELS 3 Zrotation Xrotation Yrotation
                    End Site
                    {
                      OFFSET 0 0 0
                    }
                  }
                }
              }
            }
            JOINT Neck
            {
              OFFSET 5.0226 -0.0266342 0
              CHANNELS 3 Zrotation Xrotation Yrotation
              JOINT Head
              {
                OFFSET 6.69363 2.86102e-005 0
                CHANNELS 3 Zrotation Xrotation Yrotation
                End Site
                {
                  OFFSET 0 0 0
                }
              }
            }
          }
        }
      }
    }
  }
}
MOTION
Frames:	18
Frame Time:	0.0416667
-262.061 90.9436 -260.348 98.1068 -48.0132 96.4054 -163.618 -13.1261 89.56 -21.4403 9.24453 -9.50189 67.4386 12.2876 13.9803 47.1262 14.9333 3.80535 -176.992 35.8335 100.381 -37.5335 -9.90265 -5.54288 74.8469 -4.99033 -2.28091 39.7901 0.280478 -8.26114 0.451003 7.84806 -89.2418 11.1683 1.24996 1.38707 -0.502688 1.30981 1.33071 -23.0341 0.775391 1.69854 -3.02148 0.775384 1.69853 94.7853 -50.4404 -93.3905 31.6492 -5.23014 28.6955 -170.737 -13.7573 -141.777 -64.8731 -5.30288 17.2298 -91.9363 -43.0475 74.0024 -17.6597 4.55787 -11.804 12.307 -3.13047 -88.1756 21.0559 1.2159 1.9246 8.21935 1.21308 -4.96357 1.01867 2.16457 1.19929 
-259.815 87.6307 -257.802 100.043 -42.7485 94.5222 -164.679 -13.7008 88.3302 -30.7089 10.5852 -8.82828 70.7834 16.357 17.2797 49.1077 17.0358 6.20494 -177.109 33.1266 95.837 -26.3821 -11.9757 -5.48479 70.6697 -4.36866 -2.14636 42.031 0.285726 -7.31414 -0.00118554 8.13833 -89.0879 10.5893 0.41704 1.77444 -1.08281 0.494717 1.75437 -23.6076 -0.135426 1.81773 -3.59494 -0.135413 1.81773 95.8983 -51.2189 -91.5817 32.0197 -5.23669 22.9417 -169.586 -16.335 -144.639 -66.3123 -4.89436 16.4544 -94.2879 -45.1895 70.9245 -18.5967 7.83101 -11.5104 9.58321 -0.935779 -77.6165 19.2771 0.988941 1.2781 9.96554 0.240187 -4.30761 0.424856 1.13976 1.0563 
-255.12 86.9148 -253.473 98.023 -33.6632 91.8693 -167.243 -11.0377 90.8115 -40.0235 19.545 -4.85062 66.9806 9.35414 11.1524 53.8859 21.7068 8.31219 -179.83 30.5625 91.8473 -21.6654 -9.60281 -3.68913 68.6737 -4.28964 -2.26961 41.0862 0.279116 -8.36455 -1.06647 8.06028 -89.2776 10.7672 -1.79028 1.60389 -0.903743 -1.71796 1.6811 -23.4444 -2.18954 0.991639 -3.43172 -2.18953 0.991633 95.8083 -52.496 -91.5664 30.4 -7.15032 17.4743 -162.118 -25.6153 -143.948 -77.9031 0.433077 5.86577 -95.2799 -46.0549 69.6677 -20.9205 10.2397 -10.719 14.1584 4.51436 -64.3396 14.4647 0.877748 2.23935 11.7536 0.51076 -2.99282 -0.81118 1.18049 1.15537 
-247.011 87.1587 -247.574 94.5172 -30.1793 92.7159 -168.44 -7.54602 96.0103 -45.3155 23.4897 -0.821435 50.7194 -5.34531 -4.92464 56.6473 26.0789 14.184 179.121 33.5946 93.3107 -31.4829 -9.37224 -2.42732 63.0094 -2.01793 -1.05603 44.2852 -0.00360144 -11.2307 -1.59281 7.77665 -89.919 11.3346 -3.13188 0.478652 -0.332677 -3.10775 0.616151 -22.8983 -3.1308 -0.485696 -2.88569 -3.13079 -0.485698 95.6925 -52.8632 -91.6961 28.1197 -10.3457 10.8777 -128.823 -48.2591 -124.945 -83.404 23.5438 -20.3709 -95.3453 -46.2805 69.6395 -22.1038 13.8776 -10.1921 11.4774 13.227 -46.3371 16.7889 1.37549 4.19526 13.0465 1.64663 -1.97926 -1.80099 2.1332 2.79994 
-239.433 87.0189 -242.112 93.6109 -33.5325 94.019 -171.342 -0.0929081 96.2773 -57.9167 24.156 0.914656 33.7399 -15.1308 -10.8027 27.2231 -2.71564 11.0726 179.382 35.2095 96.5145 -42.3748 -7.65281 -2.22148 63.4624 -1.92724 -1.0296 37.2151 0.381015 -4.32161 -1.30458 7.87614 -90.3141 11.1196 -2.74246 -0.358766 -0.548449 -2.7556 -0.237637 -23.1034 -2.50778 -1.1669 -3.09078 -2.50781 -1.1669 95.1984 -52.3594 -92.5006 26.9393 -13.3148 3.12893 -30.2689 -40.902 -55.1436 -42.6254 24.0206 -56.1938 -97.8112 -47.3492 66.2687 -21.9749 13.8029 -7.61219 4.43807 15.781 -30.3461 15.1828 1.38839 5.18624 15.7177 2.709 -0.290547 -2.07351 2.77301 2.43969 
-233.235 87.1785 -237.489 96.7387 -37.829 96.6239 -171.199 12.415 96.3504 -78.4717 17.1074 0.807133 35.4654 -13.0256 -8.88301 25.8296 -4.26984 12.2694 -178.363 30.9797 99.4152 -48.6847 -7.45068 -3.58633 70.0541 -4.6477 -2.42181 28.8957 0.175737 -2.58869 -0.7308 8.24378 -90.4223 10.381 -1.6492 -0.694223 -1.28915 -1.67815 -0.620961 -23.8286 -1.36433 -1.15782 -3.81591 -1.36432 -1.15783 93.2297 -50.2284 -95.8161 27.0899 -14.145 -4.38025 -2.41438 -17.5445 -51.4785 -23.4408 2.39976 -21.2863 -98.6988 -49.4102 65.6856 -22.7267 12.6277 -2.47644 2.72851 18.4932 -23.2581 12.6828 1.54177 7.85261 16.6464 3.06492 0.719456 -1.6334 2.87497 2.57733 
-227.271 89.5136 -232.295 95.7219 -40.6382 95.3563 -169.837 29.0265 96.9243 -89.9906 16.481 0.73306 35.4118 -13.2171 -6.7238 29.1859 -0.768571 10.5925 -177.478 24.7304 99.6262 -45.9291 -8.34847 -4.26983 72.9214 -6.2678 -3.11914 27.784 0.0397955 -1.15291 -0.175032 8.24236 -90.3746 10.3851 -0.520283 -0.699603 -1.28583 -0.550566 -0.676036 -23.8201 -0.285966 -0.823619 -3.80746 -0.285975 -0.82363 93.1224 -47.5346 -96.4691 25.8503 -14.9405 -11.2611 -3.81541 -16.8261 -63.4625 -22.0833 0.0955774 -5.72557 -98.2617 -49.4947 66.3543 -24.7376 12.658 4.31396 1.74144 17.6642 -22.0537 15.3288 2.07168 9.46987 16.9728 2.08556 0.949127 -1.45173 1.87931 3.09529 
-221.497 93.385 -226.708 94.3418 -41.5403 90.1119 -166.353 41.2449 92.1576 -91.2496 15.0488 0.409385 39.1967 -11.3479 -5.65467 32.1618 2.05322 10.7133 -179.52 16.3734 95.4028 -38.7426 -12.8755 -4.96718 69.9305 -5.26112 -2.78271 30.7503 0.189089 -2.10195 0.145217 8.01235 -89.8491 10.8504 0.358775 0.264092 -0.820495 0.370055 0.248043 -23.3558 0.262812 0.35971 -3.34318 0.262824 0.359712 93.882 -44.3924 -95.8107 27.322 -14.3296 -14.0027 -8.13577 -10.2966 -75.7505 -20.4547 -0.109557 -4.38974 -96.2683 -48.2563 68.8847 -27.8808 13.6674 11.8452 2.90927 19.3601 -24.0309 12.2983 1.7354 9.75786 14.3895 0.66477 1.48657 -1.27754 0.364665 2.18865 
-215.471 98.9963 -220.893 96.5285 -44.7576 86.8704 -161.038 43.6834 87.4609 -82.8052 17.8508 -1.75323 42.9635 -10.0422 -3.37745 31.7896 1.89749 7.75612 179.059 7.42222 90.4397 -31.3267 -17.5106 -6.45622 56.4378 -0.4785 -0.188161 32.6883 0.245168 -1.64391 0.707047 8.00294 -89.2267 10.856 1.76514 1.37264 -0.814404 1.82381 1.29363 -23.3494 1.27107 1.83962 -3.33674 1.27106 1.83963 95.0457 -42.0446 -94.2631 28.7205 -15.2425 -13.3667 -7.72567 -3.6956 -84.402 -19.8474 -0.269982 -3.54542 -94.1665 -46.1438 71.4074 -31.6688 14.151 17.8725 3.67122 21.9156 -24.3174 9.71556 1.2851 8.56751 10.5287 -0.920018 1.7263 -0.807111 -1.23866 0.402508 
-208.786 103.85 -216.297 97.2443 -47.0399 86.699 -161.275 44.0866 86.3209 -70.694 18.7416 -3.88995 46.0272 -9.01175 -4.03151 33.5749 3.35165 11.8486 177.123 5.00777 88.1196 -28.574 -18.0329 -5.46616 39.0575 5.23587 5.20041 28.4436 0.179942 -3.02891 0.930656 7.92695 -89.0945 11.0025 2.27217 1.58479 -0.66728 2.33973 1.48321 -23.2045 1.69095 2.19433 -3.19188 1.69095 2.19432 94.7633 -40.3906 -95.0381 29.1366 -14.7649 -12.0705 -12.5347 -3.83979 -90.3276 -19.1886 -0.487149 -2.16264 -92.6672 -45.7906 73.6226 -34.2605 13.2353 24.0572 4.17293 21.2356 -25.1845 8.86217 1.16642 8.35201 7.67086 -0.772143 3.35685 0.161206 -1.41226 -1.17272 
-202.166 106.669 -211.689 96.9707 -49.6665 87.3441 -162.527 43.2937 87.4163 -58.7495 19.3949 -5.91478 50.0659 -6.92913 -1.7587 36.3537 6.03931 12.1882 177.043 4.53928 88.5267 -25.4872 -17.3187 -4.64791 36.4687 5.77032 6.04904 25.5071 0.459538 -6.26357 1.16597 7.87876 -89.1788 11.1003 2.70196 1.37207 -0.568426 2.75973 1.25176 -23.1135 2.16476 2.12081 -3.10087 2.16475 2.1208 94.7066 -39.0217 -95.3915 27.6414 -15.5497 -11.0783 -14.0923 -1.2067 -96.2733 -17.1147 -0.361891 -2.84503 -92.6837 -44.9635 73.361 -38.3295 11.8578 28.815 4.72278 21.2006 -25.4236 7.8723 0.978772 7.54165 7.54667 -0.632797 3.97473 -0.426737 -1.37753 -1.25376 
-195.668 107.917 -206.751 97.189 -51.662 87.496 -164.141 39.9357 88.2096 -45.4879 17.7046 -7.42507 52.2625 -5.57651 -0.984379 35.7965 5.49975 11.6408 175.522 2.06272 88.5628 -16.2034 -18.3561 -3.93795 42.0596 4.67279 4.43466 25.2506 0.521327 -7.31961 1.1899 7.93079 -89.0834 10.9918 2.79337 1.55806 -0.676902 2.85923 1.43355 -23.2208 2.19605 2.32562 -3.20815 2.19608 2.32562 94.285 -38.6457 -96.2167 24.8616 -17.5479 -11.8092 -12.8324 0.474767 -99.8187 -16.6803 -0.0950619 -4.55362 -91.2817 -42.327 74.8588 -43.3965 11.2223 31.5496 4.82252 21.5689 -25.3549 6.13387 0.726137 6.58317 8.54842 0.0340279 3.29944 -1.35337 -0.617167 -1.14802 
-189.329 106.679 -203.087 101.549 -53.8639 93.9124 -167.232 36.8013 91.648 -36.2011 16.692 -6.51309 54.9995 -3.8023 0.145048 35.9807 5.67709 11.8897 175.013 -1.18916 90.9776 -8.86411 -16.4213 -1.72085 42.5423 4.47119 4.16016 29.291 0.365329 -5.67164 1.31769 8.13455 -89.3924 10.594 2.90386 0.945937 -1.07397 2.94267 0.81711 -23.6266 2.48529 1.77531 -3.61401 2.48529 1.77532 93.9577 -39.1016 -96.707 22.2694 -17.9521 -11.8089 -12.7707 0.761987 -101.524 -15.9307 0.12346 -6.15396 -91.1008 -41.1081 74.8131 -47.0966 10.4057 34.4921 5.08022 20.8732 -26.1048 1.9199 0.274564 5.34912 8.16887 0.901638 3.31096 -1.64278 0.260681 -0.66855 
-182.796 103.627 -198.2 101.026 -55.6177 93.0475 -169.02 35.1953 91.6956 -27.8767 14.4176 -6.11037 58.6496 -1.45474 -0.812487 37.5476 7.21187 12.7994 174.349 0.710403 90.9514 -10.8501 -10.792 -0.658679 44.7846 3.33036 3.02788 33.6453 0.338095 -4.34232 1.28601 8.14693 -89.2798 10.5665 2.89241 1.17111 -1.10168 2.94115 1.04258 -23.6519 2.40672 1.98653 -3.63922 2.40672 1.98654 94.2614 -39.8775 -96.0153 20.6316 -18.344 -12.6245 -12.8229 1.38897 -102.932 -14.5493 0.0888583 -6.02722 -91.0086 -41.0256 74.9424 -48.5297 10.9028 35.8734 5.15777 20.0428 -27.5345 -2.78337 -0.119502 2.84797 8.6822 1.56965 2.93624 -1.80646 0.990797 -0.0252489 
-176.68 98.5738 -193.146 100.861 -56.8446 91.1992 -170.028 34.8362 90.8703 -22.7004 14.3284 -5.65944 60.6269 -0.268234 0.112611 38.0575 7.75917 14.0407 174.338 5.00887 88.8681 -26.3344 -6.61726 -1.37467 58.4884 -1.36326 -0.559292 34.3868 0.275451 -0.332817 1.21437 8.18231 -89.0274 10.4867 2.86526 1.67961 -1.18202 2.93638 1.55181 -23.7253 2.22813 2.46313 -3.71264 2.22812 2.46311 94.2121 -41.4372 -95.8027 19.4967 -18.0163 -12.1217 -13.7973 1.10893 -103.122 -17.795 0.250363 -6.78598 -91.4385 -42.0888 74.5414 -47.951 12.3763 36.8426 4.90499 18.9849 -29.4188 -6.9019 -0.322782 1.55173 8.56658 1.98866 2.61672 -0.876604 1.46755 0.085914 
-170.529 93.1634 -188.961 103.67 -58.7328 94.2172 -170.147 34.2585 92.0093 -19.4534 11.2646 -5.01077 61.7955 0.778686 0.482862 39.2383 8.89894 13.4672 176.614 4.20455 91.0638 -40.9053 -2.69139 -4.09938 78.2569 -9.07986 -4.02554 37.6952 0.417657 -2.23038 1.26039 8.46346 -89.0461 9.9239 2.9452 1.65203 -1.7446 3.01501 1.52074 -24.2894 2.31264 2.46088 -4.27672 2.31263 2.46088 93.548 -43.2285 -96.5882 18.2235 -18.6473 -12.6144 -12.7528 1.73219 -101.462 -16.6879 0.229451 -6.79409 -91.1626 -46.5618 76.1516 -42.5211 13.1792 33.1889 4.25057 19.8172 -27.2077 -6.0002 -0.295856 0.65451 11.1785 2.69005 3.03798 -1.3633 1.99857 0.00496346 
-163.079 90.5396 -183.81 103.486 -59.4864 97.1615 -171.167 32.53 94.3421 -13.9579 13.0853 -3.71768 60.9743 0.978282 1.35136 40.7908 10.7258 16.8823 176.602 -2.06904 91.4484 -40.6742 -0.559203 -4.42862 86.2147 -12.1264 -4.49318 38.8401 0.391782 -4.70376 1.33268 8.41167 -89.3192 10.0368 2.96564 1.10561 -1.63114 3.01142 0.973911 -24.1831 2.49625 1.94614 -4.17045 2.49624 1.94614 91.7835 -45.2892 -99.0766 20.3857 -18.6249 -8.42251 -11.884 -2.89939 -95.74 -19.7738 0.150568 -5.95425 -89.9982 -49.8331 78.6949 -37.6144 10.266 26.4623 4.22028 19.9019 -22.957 6.5241 0.800218 7.0425 11.9886 3.30972 3.22671 -2.1236 2.54547 0.102378 
-154.787 89.6797 -177.003 99.8163 -58.5256 94.4817 -170.088 31.7487 92.9453 -14.003 6.48123 -4.63182 64.1921 3.02295 0.740722 39.5036 9.23706 14.6718 175.574 -6.58143 89.1046 -40.7002 -3.70844 -5.5515 82.2838 -10.4666 -4.22635 46.9096 0.212082 -7.37308 1.2782 8.03595 -89.2723 10.7877 2.88098 1.17992 -0.88045 2.93011 1.0519 -23.4303 2.39318 1.9915 -3.41768 2.39318 1.9915 92.577 -46.9968 -97.437 23.8767 -19.8271 -3.81767 -12.0973 -6.38065 -87.2364 -19.1871 -0.0853093 -4.54504 -89.8979 -50.497 78.9864 -35.9235 7.8032 23.2432 4.33209 13.1557 -25.0809 11.2754 1.38792 8.03367 11.0048 2.51774 2.10633 -2.87303 2.02656 -0.343613 
